# xmcd
#
# Track frame offsets:
#	150
#	22252
#	34115
#	48965
#	61665
#	87290
#	106740
#	117815
#	133390
#	149540
#
# Disc length: 2309 seconds
#
# Revision: 0
# Processed by: cddbd v1.4PL0 Copyright (c) Steve Scherf et al.
# Submitted via: EasyCDDAExtractor 4.6.0.1
#
DISCID=8809030a
DTITLE=B.B. King - The Thrill Is Gone
DYEAR=1998
DGENRE=Blues
TTITLE0=The Thrill Is Gone
TTITLE1=Payin' The Cost To Be The Boss
TTITLE2=B.B. Boogie
TTITLE3=Please Love Me
TTITLE4=Guess Who
TTITLE5=Sweet Sixteen
TTITLE6=Catfish Blues
TTITLE7=Walkin' And Cryin'
TTITLE8=It's My Own Fault
TTITLE9=You've Done Lost Your Good Thing Now
EXTD=KRB Music Companies\nBrentwood, Tennessee\n
EXTT0=
EXTT1=
EXTT2=
EXTT3=
EXTT4=
EXTT5=
EXTT6=
EXTT7=
EXTT8=
EXTT9=
PLAYORDER=
